<svg xmlns="http://www.w3.org/2000/svg" width="48" height="48" viewBox="0 0 48 48" fill="none">
  <defs>
    <linearGradient id="mark" x1="8" y1="8" x2="40" y2="40" gradientUnits="userSpaceOnUse">
      <stop stop-color="#39B5FF"/>
      <stop offset="1" stop-color="#007AFF"/>
    </linearGradient>
    <filter id="shadow" x="-25%" y="-25%" width="150%" height="165%" color-interpolation-filters="sRGB">
      <feDropShadow dx="0" dy="8" stdDeviation="8" flood-color="#0A84FF" flood-opacity=".22"/>
    </filter>
  </defs>
  <rect x="6" y="6" width="36" height="36" rx="10" fill="url(#mark)" filter="url(#shadow)"/>
  <path d="M24.3 31.2c-4.05 0-7.05-1.98-7.23-5.13h4.02c.18 1.2 1.35 2.07 3.21 2.07 1.71 0 2.7-.69 2.7-1.74 0-3.03-9.48-.69-9.48-7.35 0-2.94 2.55-5.19 6.54-5.19 3.84 0 6.42 2.1 6.66 5.19h-3.93c-.15-1.17-1.14-2.01-2.82-2.01-1.59 0-2.49.63-2.49 1.65 0 3.09 9.3.78 9.42 7.41 0 3.03-2.61 5.1-6.6 5.1Z" fill="white"/>
</svg>
