<svg xmlns="http://www.w3.org/2000/svg" width="196" height="48" viewBox="0 0 196 48" fill="none">
  <defs>
    <linearGradient id="mark" x1="6" y1="6" x2="42" y2="42" gradientUnits="userSpaceOnUse">
      <stop stop-color="#2EA7FF"/>
      <stop offset="1" stop-color="#007AFF"/>
    </linearGradient>
    <filter id="shadow" x="-20%" y="-20%" width="140%" height="150%" color-interpolation-filters="sRGB">
      <feDropShadow dx="0" dy="8" stdDeviation="8" flood-color="#0A84FF" flood-opacity=".22"/>
    </filter>
  </defs>
  <rect x="2" y="6" width="36" height="36" rx="10" fill="url(#mark)" filter="url(#shadow)"/>
  <path d="M20.3 31.2c-4.05 0-7.05-1.98-7.23-5.13h4.02c.18 1.2 1.35 2.07 3.21 2.07 1.71 0 2.7-.69 2.7-1.74 0-3.03-9.48-.69-9.48-7.35 0-2.94 2.55-5.19 6.54-5.19 3.84 0 6.42 2.1 6.66 5.19h-3.93c-.15-1.17-1.14-2.01-2.82-2.01-1.59 0-2.49.63-2.49 1.65 0 3.09 9.3.78 9.42 7.41 0 3.03-2.61 5.1-6.6 5.1Z" fill="white"/>
  <text x="50" y="31" font-family="Avenir Next, ui-sans-serif, system-ui, -apple-system, BlinkMacSystemFont, Segoe UI, sans-serif" font-size="24" font-weight="800" letter-spacing="-1.4" fill="#111827">Simple</text>
  <text x="126" y="31" font-family="Avenir Next, ui-sans-serif, system-ui, -apple-system, BlinkMacSystemFont, Segoe UI, sans-serif" font-size="24" font-weight="800" letter-spacing="-1.4" fill="#007AFF">HPC</text>
</svg>
